<svg width="17" height="16" viewBox="0 0 17 16" fill="none" xmlns="http://www.w3.org/2000/svg">
<g clip-path="url(#clip0)">
<path d="M8.5 0C6.37 0 5.38 2.04 5.38 2.04C5.33272 2.13455 5.30453 2.23749 5.29704 2.34294C5.28955 2.44838 5.3029 2.55427 5.33632 2.65456C5.36975 2.75485 5.42261 2.84757 5.49187 2.92743C5.56113 3.00729 5.64545 3.07272 5.74 3.12C5.83455 3.16728 5.93749 3.19547 6.04294 3.20296C6.14838 3.21045 6.25427 3.1971 6.35456 3.16368C6.45485 3.13025 6.54757 3.07739 6.62743 3.00813C6.70729 2.93887 6.77272 2.85455 6.82 2.76C6.82 2.76 7.43 1.6 8.5 1.6C9.57 1.6 10.18 2.76 10.18 2.76C10.2273 2.85455 10.2927 2.93887 10.3726 3.00813C10.4524 3.07739 10.5452 3.13025 10.6454 3.16368C10.7457 3.1971 10.8516 3.21045 10.9571 3.20296C11.0625 3.19547 11.1654 3.16728 11.26 3.12C11.3546 3.07272 11.4389 3.00729 11.5081 2.92743C11.5774 2.84757 11.6302 2.75485 11.6637 2.65456C11.6971 2.55427 11.7105 2.44838 11.703 2.34294C11.6955 2.23749 11.6673 2.13455 11.62 2.04C11.62 2.04 10.63 0 8.5 0ZM15.72 4.8H1.28C1.07313 4.8 0.874735 4.88218 0.728457 5.02846C0.582178 5.17474 0.5 5.37313 0.5 5.58L0.5 5.62C0.5 6.05 0.85 6.4 1.28 6.4H15.72C16.15 6.4 16.5 6.05 16.5 5.62V5.58C16.5 5.37313 16.4178 5.17474 16.2715 5.02846C16.1253 4.88218 15.9269 4.8 15.72 4.8ZM14.14 14.4H2.86C2.65844 14.4 2.46513 14.4801 2.3226 14.6226C2.18007 14.7651 2.1 14.9584 2.1 15.16V15.24C2.1 15.66 2.44 16 2.86 16H14.14C14.56 16 14.9 15.66 14.9 15.24V15.16C14.9 14.9584 14.8199 14.7651 14.6774 14.6226C14.5349 14.4801 14.3416 14.4 14.14 14.4Z" fill="white"/>
<path d="M2.1 15.24L0.5 5.70001H2.1L3.7 15.24C3.70276 15.3406 3.68498 15.4406 3.64776 15.5341C3.61055 15.6275 3.55467 15.7124 3.48354 15.7835C3.41241 15.8547 3.32752 15.9106 3.23407 15.9478C3.14062 15.985 3.04055 16.0028 2.94 16H2.86C2.75982 16.0014 2.66039 15.9826 2.56758 15.9449C2.47476 15.9072 2.39044 15.8513 2.3196 15.7804C2.24876 15.7096 2.19283 15.6253 2.15511 15.5324C2.11739 15.4396 2.09866 15.3402 2.1 15.24ZM13.3 15.24L14.9 5.70001H16.5L14.9 15.24C14.8974 15.4408 14.8165 15.6326 14.6745 15.7745C14.5326 15.9165 14.3408 15.9974 14.14 16H14.06C13.9598 16.0014 13.8604 15.9826 13.7676 15.9449C13.6748 15.9072 13.5904 15.8513 13.5196 15.7804C13.4488 15.7096 13.3928 15.6253 13.3551 15.5324C13.3174 15.4396 13.2987 15.3402 13.3 15.24ZM6.07 7.99001C5.95937 7.99467 5.85092 8.02224 5.75149 8.07098C5.65207 8.11972 5.56385 8.18856 5.49241 8.27316C5.42097 8.35776 5.36788 8.45626 5.33648 8.56244C5.30508 8.66863 5.29606 8.78017 5.31 8.89001L5.71 12.1C5.71332 12.2115 5.73991 12.3211 5.78807 12.4217C5.83623 12.5223 5.9049 12.6117 5.98966 12.6842C6.07442 12.7567 6.1734 12.8106 6.28025 12.8426C6.3871 12.8746 6.49946 12.8839 6.61011 12.8699C6.72076 12.8559 6.82726 12.8189 6.92277 12.7613C7.01828 12.7037 7.1007 12.6268 7.16472 12.5354C7.22874 12.4441 7.27296 12.3404 7.29454 12.231C7.31611 12.1215 7.31457 12.0088 7.29 11.9L6.89 8.70001C6.86518 8.50211 6.76732 8.32063 6.61563 8.19113C6.46394 8.06164 6.26934 7.99348 6.07 8.00001V7.99001ZM10.91 7.99001C10.7125 7.98876 10.5216 8.06058 10.3739 8.19166C10.2262 8.32273 10.1322 8.5038 10.11 8.70001L9.71 11.9C9.68543 12.0088 9.68389 12.1215 9.70546 12.231C9.72704 12.3404 9.77126 12.4441 9.83528 12.5354C9.8993 12.6268 9.98172 12.7037 10.0772 12.7613C10.1727 12.8189 10.2792 12.8559 10.3899 12.8699C10.5005 12.8839 10.6129 12.8746 10.7197 12.8426C10.8266 12.8106 10.9256 12.7567 11.0103 12.6842C11.0951 12.6117 11.1638 12.5223 11.2119 12.4217C11.2601 12.3211 11.2867 12.2115 11.29 12.1L11.69 8.90001C11.7056 8.78778 11.6972 8.67351 11.6653 8.56477C11.6334 8.45604 11.5788 8.35532 11.505 8.26928C11.4313 8.18325 11.3401 8.11386 11.2375 8.06572C11.1349 8.01757 11.0233 7.99177 10.91 7.99001Z" fill="white"/>
</g>
<defs>
<clipPath id="clip0">
<rect width="16" height="16" fill="white" transform="translate(0.5)"/>
</clipPath>
</defs>
</svg>
